<?xml version="1.0" encoding="UTF-8"?>
<!DOCTYPE svg PUBLIC "-//W3C//DTD SVG 1.1//EN" "http://www.w3.org/Graphics/SVG/1.1/DTD/svg11.dtd">
<!-- Creator: CorelDRAW X7 -->
<svg xmlns="http://www.w3.org/2000/svg" xml:space="preserve" width="210mm" height="297mm" version="1.1" style="shape-rendering:geometricPrecision; text-rendering:geometricPrecision; image-rendering:optimizeQuality; fill-rule:evenodd; clip-rule:evenodd"
viewBox="0 0 21000 29700"
 xmlns:xlink="http://www.w3.org/1999/xlink">
 <defs>
  <style type="text/css">
   <![CDATA[
    .fil0 {fill:#BF9B3A}
   ]]>
  </style>
 </defs>
 <g id="Layer_x0020_1">
  <metadata id="CorelCorpID_0Corel-Layer"/>
  <g id="_714229248">
   <g>
    <path class="fil0" d="M5436 7250c34,0 63,-21 74,-52 3,-8 4,-17 4,-26 0,-9 -1,-18 -4,-27 -11,-30 -40,-52 -74,-52l0 52c14,0 26,12 26,27 0,14 -12,26 -26,26l0 52z"/>
    <path class="fil0" d="M5239 7093c-35,0 -64,22 -75,52 -2,9 -4,18 -4,27 0,9 2,18 4,26 11,31 40,52 75,52l0 -52c-15,0 -27,-12 -27,-26 0,-15 12,-27 27,-27l0 -52z"/>
    <path class="fil0" d="M5258 7073c0,-34 22,-63 53,-74 8,-3 17,-5 26,-5 9,0 18,2 26,5 31,11 53,40 53,74l-53 0c0,-14 -11,-26 -26,-26 -14,0 -26,12 -26,26l-53 0z"/>
    <path class="fil0" d="M5416 7270c0,35 -22,64 -53,74 -8,3 -17,5 -26,5 -9,0 -18,-2 -26,-5 -31,-10 -53,-39 -53,-74l53 0c0,15 12,26 26,26 15,0 26,-11 26,-26l53 0z"/>
   </g>
   <path class="fil0" d="M5363 7093l0 -20 53 0 0 20 20 0 0 52 -20 0 0 53 20 0 0 52 -20 0 0 20 -53 0 0 -20 -52 0 0 20 -52 0 0 -20 -20 0 0 -52 20 0 0 -53 -20 0 0 -52 20 0 -1 -20 53 0 0 20 52 0zm0 105l0 -53 -52 0 0 53 52 0z"/>
  </g>
 </g>
</svg>
